<?xml version="1.0" encoding="utf-8"?>
<!-- Generator: Adobe Illustrator 21.0.0, SVG Export Plug-In . SVG Version: 6.00 Build 0)  -->
<svg version="1.1" id="Capa_1" xmlns="http://www.w3.org/2000/svg" xmlns:xlink="http://www.w3.org/1999/xlink" x="0px" y="0px"
	 viewBox="0 0 512 512" style="enable-background:new 0 0 512 512;" xml:space="preserve">
<style type="text/css">
	.st0{fill:#FFFFFF;stroke:#FFFFFF;stroke-miterlimit:10;}
</style>
<g>
	<path class="st0" d="M437,75C388.7,26.6,324.4,0,256,0S123.3,26.6,75,75C26.6,123.3,0,187.6,0,256s26.6,132.7,75,181
		c48.4,48.4,112.6,75,181,75s132.7-26.6,181-75c48.4-48.4,75-112.6,75-181S485.4,123.3,437,75L437,75z M271,160.3
		c27.1-0.8,53.4-3.8,78.2-8.8c6.9,27.6,11.1,57.9,12.1,89.6H271V160.3z M271,130.3V32.5c20.7,6.9,40.8,27.9,56.8,59.8
		c4.7,9.5,9,19.6,12.8,30.3C318.6,126.9,295.1,129.5,271,130.3L271,130.3z M241,32.5v97.7c-24.1-0.8-47.6-3.4-69.6-7.6
		c3.8-10.7,8-20.9,12.8-30.3C200.2,60.4,220.3,39.4,241,32.5z M241,160.3V241h-90.3c1-31.6,5.1-62,12.1-89.6
		C187.6,156.4,213.9,159.5,241,160.3L241,160.3z M120.7,241H30.5c2.8-43.6,18-84.9,43.9-119.7c17.6,9.2,37.5,17,59.2,23.1
		C126.2,174.3,121.7,207.1,120.7,241z M120.7,271c1,33.9,5.4,66.7,12.9,96.6c-21.7,6.1-41.6,13.9-59.2,23.1
		c-25.9-34.8-41.1-76-43.9-119.7H120.7z M150.7,271H241v80.7c-27.1,0.8-53.4,3.8-78.2,8.8C155.8,333,151.7,302.6,150.7,271z
		 M241,381.7v97.7c-20.7-6.9-40.8-27.9-56.8-59.8c-4.7-9.5-9-19.6-12.8-30.3C193.4,385.1,216.9,382.5,241,381.7z M271,479.5v-97.7
		c24.1,0.8,47.6,3.4,69.6,7.6c-3.8,10.7-8,20.9-12.8,30.3C311.8,451.6,291.7,472.6,271,479.5L271,479.5z M271,351.7V271h90.3
		c-1,31.6-5.1,62-12.1,89.6C324.4,355.6,298.1,352.5,271,351.7L271,351.7z M391.3,271h90.2c-2.8,43.6-18,84.9-43.9,119.7
		c-17.6-9.2-37.5-17-59.2-23.1C385.8,337.7,390.3,304.9,391.3,271z M391.3,241c-1-33.9-5.4-66.7-12.9-96.6
		c21.7-6.1,41.6-13.9,59.2-23.1c25.9,34.8,41.1,76,43.9,119.7H391.3z M417.5,97.9c-14.3,7-30.3,13-47.6,17.8
		c-4.5-13.1-9.5-25.4-15.3-36.8c-6.8-13.6-14.3-25.5-22.3-35.7c31,11.1,59.5,29,83.5,53C416.4,96.8,416.9,97.3,417.5,97.9
		L417.5,97.9z M179.7,43.2c-8,10.2-15.5,22.2-22.3,35.7c-5.7,11.4-10.8,23.8-15.3,36.8c-17.3-4.8-33.3-10.8-47.6-17.8
		c0.6-0.6,1.1-1.1,1.7-1.7C120.2,72.2,148.6,54.3,179.7,43.2L179.7,43.2z M94.5,414.1c14.3-7,30.3-13,47.6-17.8
		c4.4,13.1,9.5,25.4,15.3,36.8c6.8,13.6,14.3,25.5,22.3,35.7c-31-11.1-59.5-29-83.5-53C95.6,415.2,95.1,414.7,94.5,414.1z
		 M332.3,468.8c8-10.2,15.5-22.1,22.3-35.7c5.7-11.4,10.8-23.8,15.3-36.8c17.3,4.8,33.3,10.8,47.6,17.8c-0.6,0.6-1.1,1.1-1.7,1.7
		C391.8,439.8,363.4,457.7,332.3,468.8z"/>
</g>
</svg>
